<?xml version="1.0" standalone="no"?>
<!DOCTYPE svg PUBLIC "-//W3C//DTD SVG 20010904//EN"
 "http://www.w3.org/TR/2001/REC-SVG-20010904/DTD/svg10.dtd">
<svg version="1.0" xmlns="http://www.w3.org/2000/svg"
 width="500.000000pt" height="500.000000pt" viewBox="0 0 500.000000 500.000000"
 preserveAspectRatio="xMidYMid meet">
<metadata>
Created by potrace 1.14, written by Peter Selinger 2001-2017
</metadata>
<g transform="translate(0.000000,500.000000) scale(0.100000,-0.100000)"
fill="#000000" stroke="none">
<path d="M2319 4776 c-2 -2 -33 -6 -69 -10 -75 -7 -113 -13 -190 -27 -30 -6
-64 -12 -75 -14 -102 -15 -392 -113 -517 -175 -42 -21 -79 -36 -82 -32 -3 3
-6 0 -6 -6 0 -7 -4 -12 -9 -12 -10 0 -153 -79 -161 -89 -3 -4 -23 -17 -45 -30
-55 -32 -212 -151 -263 -200 -24 -23 -45 -41 -47 -41 -10 0 -161 -162 -224
-240 -20 -25 -38 -47 -41 -50 -15 -14 -150 -220 -150 -228 0 -6 -4 -12 -8 -14
-11 -4 -94 -170 -130 -259 -40 -101 -57 -143 -57 -149 -1 -3 -11 -37 -23 -75
-24 -81 -49 -182 -57 -240 -3 -22 -8 -45 -10 -52 -27 -80 -27 -517 0 -668 23
-131 66 -309 85 -350 5 -11 14 -38 21 -60 6 -22 16 -46 22 -52 5 -7 6 -13 3
-13 -4 0 -1 -10 6 -22 7 -13 13 -25 13 -28 2 -19 114 -231 159 -304 31 -48 56
-92 56 -96 0 -5 4 -10 8 -12 4 -1 33 -37 64 -78 102 -136 239 -276 378 -389
14 -11 32 -27 40 -34 21 -20 216 -150 270 -181 178 -102 374 -183 570 -237 60
-16 69 -19 91 -24 11 -2 28 -6 37 -9 9 -3 33 -7 52 -10 19 -3 60 -10 90 -16
88 -17 213 -25 385 -25 150 0 340 11 355 20 3 2 29 7 56 10 133 17 383 89 544
158 106 45 277 132 301 153 8 8 19 14 22 14 11 0 168 109 198 136 14 13 30 24
36 24 6 0 13 3 15 8 2 4 34 34 72 67 74 64 214 207 271 278 45 54 125 167 125
175 0 6 4 12 8 14 23 9 201 345 216 408 1 3 8 16 16 30 7 14 12 25 11 25 -1 0
0 7 3 15 38 114 80 277 91 355 4 22 8 51 11 65 26 143 26 562 0 642 -3 7 -7
31 -10 53 -23 167 -105 424 -188 585 -15 30 -28 60 -28 67 0 7 -4 13 -10 13
-5 0 -10 6 -10 14 0 7 -7 19 -15 26 -9 7 -13 15 -11 17 6 7 -166 263 -204 303
-16 17 -30 34 -30 37 0 2 -10 14 -22 27 -13 12 -43 45 -69 72 -74 80 -194 187
-284 254 -33 25 -62 48 -63 53 -2 4 -8 5 -13 1 -5 -3 -9 -1 -9 5 0 6 -16 18
-35 27 -19 9 -35 20 -35 24 0 4 -8 10 -17 13 -10 4 -45 22 -78 42 -126 75
-422 205 -465 205 -9 0 -20 3 -24 7 -3 4 -13 8 -20 9 -7 1 -40 10 -72 19 -33
9 -70 19 -83 22 -14 2 -27 6 -31 8 -4 2 -29 7 -56 11 -27 3 -58 8 -69 10 -10
2 -35 6 -55 9 -20 3 -47 8 -60 11 -28 6 -465 15 -471 10z"/>
</g>
</svg>
