<?xml version="1.0" encoding="UTF-8" standalone="no"?>
<!DOCTYPE svg PUBLIC "-//W3C//DTD SVG 1.1//EN" "http://www.w3.org/Graphics/SVG/1.1/DTD/svg11.dtd">
<svg xmlns="http://www.w3.org/2000/svg" version="1.1" viewBox="0.00 0.00 512.00 512.00">
<path fill="#000000" d="
  M 512.00 199.57
  L 512.00 201.51
  C 511.54 205.30 509.94 208.53 507.21 211.21
  C 469.01 248.67 430.87 286.08 392.80 323.43
  C 392.51 323.72 392.37 324.13 392.44 324.53
  C 401.68 377.22 410.89 429.95 420.06 482.71
  C 421.03 488.27 418.95 493.59 414.29 496.83
  C 409.27 500.32 403.75 500.06 398.53 497.33
  C 350.38 472.13 303.19 447.47 256.95 423.34
  C 256.78 423.25 256.56 423.25 256.39 423.34
  C 200.79 452.81 153.26 477.99 113.79 498.88
  C 107.01 502.47 98.95 499.35 95.17 493.11
  C 93.49 490.35 93.01 486.60 93.55 483.43
  C 102.40 430.82 111.29 378.03 120.23 325.08
  C 120.27 324.84 120.20 324.64 120.03 324.47
  C 81.56 287.19 43.06 249.87 4.51 212.50
  C 1.91 209.98 0.41 206.79 0.00 202.93
  L 0.00 200.97
  C 0.86 196.07 3.12 192.52 6.77 190.31
  C 8.65 189.17 12.42 188.18 18.08 187.34
  C 69.21 179.73 120.32 172.13 171.41 164.54
  C 171.70 164.50 171.96 164.31 172.10 164.04
  C 195.53 116.13 218.97 68.26 242.41 20.42
  C 245.20 14.71 249.55 11.80 255.44 11.70
  C 262.10 11.58 266.41 15.68 269.27 21.45
  C 293.46 70.12 317.02 117.49 339.97 163.58
  C 340.08 163.81 340.30 163.96 340.55 164.00
  C 393.34 171.51 446.15 179.02 499.00 186.53
  C 506.37 187.58 510.71 191.93 512.00 199.57
  Z
  M 329.16 191.12
  C 324.05 190.39 319.96 187.16 317.61 182.44
  C 297.10 141.18 276.56 99.89 256.01 58.58
  C 255.94 58.43 255.84 58.31 255.71 58.20
  C 255.61 58.11 255.46 58.14 255.40 58.26
  C 235.11 99.73 214.70 141.39 194.19 183.24
  C 191.89 187.93 188.05 190.68 182.68 191.48
  C 136.25 198.40 90.45 205.20 45.26 211.89
  C 45.08 211.92 45.01 212.14 45.14 212.27
  C 77.58 243.79 110.15 275.39 142.85 307.07
  C 147.61 311.69 150.41 315.74 149.32 322.27
  C 141.63 368.10 133.94 413.91 126.23 459.71
  C 126.20 459.90 126.39 460.04 126.56 459.95
  C 167.45 438.34 207.48 417.11 246.66 396.26
  C 252.79 393.00 257.67 391.71 263.81 394.91
  C 304.77 416.30 345.81 437.73 386.93 459.19
  C 387.12 459.29 387.34 459.13 387.30 458.92
  C 379.45 413.50 371.69 369.04 364.01 325.55
  C 362.74 318.39 362.64 313.48 367.73 308.49
  C 400.90 276.00 434.04 243.55 467.15 211.12
  C 467.28 210.99 467.21 210.77 467.03 210.75
  C 421.06 204.21 375.11 197.67 329.16 191.12
  Z"
/>
</svg>
