<?xml version="1.0" encoding="UTF-8" standalone="no"?>
<!DOCTYPE svg PUBLIC "-//W3C//DTD SVG 1.1//EN" "http://www.w3.org/Graphics/SVG/1.1/DTD/svg11.dtd">
<svg xmlns="http://www.w3.org/2000/svg" version="1.1" viewBox="0.00 0.00 512.00 512.00">
<path fill="#000000" d="
  M 188.61 197.87
  C 182.11 205.01 181.06 215.11 185.90 223.22
  C 201.42 249.17 220.31 273.58 243.04 292.76
  C 257.56 305.01 272.55 315.62 288.00 324.59
  C 294.02 328.09 300.31 328.63 306.87 326.21
  C 309.63 325.19 313.47 322.45 318.39 317.99
  C 322.62 314.16 326.63 310.49 330.42 306.98
  C 335.34 302.44 339.14 299.16 341.82 297.13
  C 351.86 289.56 363.41 285.92 376.46 286.19
  C 391.05 286.49 403.94 292.19 415.11 303.29
  C 429.79 317.86 445.92 333.88 463.50 351.34
  C 486.53 374.21 484.79 409.62 461.89 431.78
  C 407.92 484.01 325.45 497.30 261.91 454.13
  C 203.09 414.16 150.98 366.58 105.57 311.39
  C 89.84 292.27 74.61 272.21 59.87 251.22
  C 16.76 189.80 25.43 110.38 74.24 54.90
  C 79.42 49.01 84.31 44.49 88.92 41.36
  C 107.04 29.04 131.02 28.96 149.37 41.00
  C 153.03 43.40 157.58 47.32 163.01 52.77
  C 178.00 67.79 193.00 82.72 208.00 97.55
  C 229.11 118.43 230.50 151.55 210.47 173.76
  C 203.44 181.55 196.16 189.58 188.61 197.87
  Z
  M 100.86 73.25
  C 64.39 112.25 52.41 168.71 76.74 217.32
  C 81.97 227.78 89.14 237.20 95.91 246.58
  C 110.38 266.60 125.85 286.15 142.31 305.24
  C 181.40 350.57 226.33 390.76 277.10 425.79
  C 283.11 429.94 288.70 433.29 293.86 435.82
  C 342.93 459.94 402.98 445.39 441.36 407.11
  C 448.53 399.96 450.15 390.09 445.93 380.79
  C 444.87 378.45 442.40 375.37 438.52 371.55
  C 421.91 355.20 406.38 339.79 391.91 325.32
  C 382.67 316.07 368.76 315.67 359.03 324.39
  C 351.34 331.28 343.81 338.06 336.43 344.74
  C 318.01 361.39 292.89 364.59 271.53 352.08
  C 257.16 343.66 242.86 333.77 228.63 322.42
  C 201.08 300.44 179.65 273.86 160.10 242.54
  C 156.51 236.78 154.07 231.57 152.80 226.92
  C 147.88 208.90 152.42 190.20 164.91 176.35
  C 171.21 169.36 178.05 161.86 185.42 153.84
  C 187.57 151.50 189.21 149.26 190.32 147.11
  C 195.17 137.72 192.44 127.11 185.15 119.93
  C 170.21 105.20 155.03 90.10 139.61 74.64
  C 134.98 70.00 131.56 67.20 129.34 66.23
  C 123.35 63.60 117.50 63.30 111.78 65.32
  C 107.20 66.94 104.09 69.80 100.86 73.25
  Z"
/>
</svg>
