<?xml version="1.0" encoding="UTF-8" standalone="no"?>
<!DOCTYPE svg PUBLIC "-//W3C//DTD SVG 1.1//EN" "http://www.w3.org/Graphics/SVG/1.1/DTD/svg11.dtd">
<svg xmlns="http://www.w3.org/2000/svg" version="1.1" viewBox="0.00 0.00 512.00 512.00">
<path fill="#000000" d="
  M 248.04 0.00
  L 263.36 0.00
  C 326.84 2.67 381.64 24.87 427.77 66.61
  C 479.23 113.17 509.77 178.89 511.40 247.75
  C 514.54 380.44 412.94 493.31 281.31 506.15
  C 232.53 510.91 185.82 502.33 141.19 480.42
  C 140.89 480.27 140.58 480.23 140.25 480.31
  L 1.17 512.00
  C 1.12 511.99 1.06 511.99 1.01 512.00
  L 31.04 373.99
  C 31.11 373.67 31.06 373.34 30.91 373.06
  C 12.04 338.17 1.74 300.88 0.00 261.21
  L 0.00 245.93
  C 2.57 185.64 23.30 133.06 62.20 88.20
  C 84.17 62.87 110.54 42.41 141.32 26.82
  C 173.99 10.27 209.57 1.33 248.04 0.00
  Z
  M 147.03 438.23
  C 153.43 441.82 159.53 444.95 165.34 447.62
  C 276.33 498.57 407.15 447.92 454.90 335.95
  C 476.89 284.39 477.01 224.36 455.12 172.62
  C 432.99 120.29 390.16 77.46 337.37 55.94
  C 280.97 32.95 216.73 34.91 161.73 61.44
  C 86.02 97.95 38.29 174.57 40.05 258.87
  C 40.77 293.56 51.32 328.33 68.41 358.31
  C 70.02 361.13 71.64 363.96 73.28 366.79
  C 73.42 367.02 73.46 367.27 73.40 367.54
  L 53.37 458.54
  C 53.32 458.79 53.54 459.01 53.78 458.95
  L 145.75 438.04
  C 146.18 437.94 146.64 438.01 147.03 438.23
  Z"
/>
<path fill="#000000" d="
  M 328.00 280.65
  C 341.11 286.78 355.17 293.65 370.18 301.26
  C 373.45 302.92 376.22 304.07 376.50 308.07
  C 376.91 313.92 375.97 320.92 373.68 329.07
  C 372.08 334.78 369.16 339.63 364.92 343.64
  C 359.19 349.05 352.41 353.55 344.58 357.14
  C 332.63 362.61 317.00 362.61 304.30 359.61
  C 291.59 356.61 278.03 352.22 263.61 346.44
  C 257.01 343.79 251.04 341.02 245.69 338.12
  C 216.96 322.56 191.28 297.49 171.65 270.66
  C 157.66 251.54 142.71 230.91 139.57 206.70
  C 136.74 184.96 142.91 166.21 158.07 150.45
  C 162.55 145.79 167.62 142.04 173.70 141.97
  C 178.83 141.91 184.35 141.45 189.33 142.22
  C 194.48 143.02 197.77 148.29 199.65 152.80
  C 205.50 166.77 211.54 181.44 217.78 196.81
  C 218.95 199.70 219.04 202.34 218.04 204.73
  C 215.86 209.97 213.24 214.19 209.25 218.34
  C 207.08 220.59 204.80 222.92 202.39 225.32
  C 198.82 228.89 197.62 232.39 200.33 236.85
  C 213.41 258.44 229.00 276.68 249.46 290.45
  C 260.12 297.62 271.41 303.50 283.32 308.09
  C 286.76 309.42 289.79 308.60 292.40 305.65
  C 300.02 297.02 306.72 288.76 312.51 280.89
  C 316.37 275.62 322.77 278.20 328.00 280.65
  Z"
/>
</svg>
